<svg width="16" height="21" viewBox="0 0 16 21" fill="none" xmlns="http://www.w3.org/2000/svg">
<path fill-rule="evenodd" clip-rule="evenodd" d="M14.9999 6.0001C15.3805 6.01801 15.7179 6.25068 15.8699 6.6001C16.0254 6.96115 15.955 7.37982 15.6899 7.6701L4.78989 19.6701C4.48064 20.0158 3.97429 20.1034 3.56685 19.8818C3.1594 19.6602 2.9578 19.1876 3.07989 18.7401L4.88989 12.0001H1.01989C0.706878 12.0025 0.410818 11.8581 0.219886 11.6101C0.0307579 11.3624 -0.0320995 11.0408 0.0498862 10.7401L2.72989 0.740104C2.85055 0.290886 3.26502 -0.0158196 3.72989 0.00010389H10.7299C11.0394 0.00084781 11.3311 0.144857 11.5199 0.390104C11.709 0.637775 11.7719 0.959457 11.6899 1.2601L10.4199 6.0001H14.9999ZM7.14989 11.2801L6.07989 15.2801L12.7199 8.0001H9.14989C8.83278 8.01107 8.52929 7.87089 8.33204 7.62236C8.1348 7.37383 8.0672 7.04643 8.14989 6.7401L9.41989 2.0001H4.48989L2.34989 10.0201H6.18989C6.49938 10.0208 6.79109 10.1649 6.97989 10.4101C7.16901 10.6578 7.23187 10.9795 7.14989 11.2801Z" fill="white"/>
</svg>
