<svg width="20" height="21" viewBox="0 0 20 21" fill="none" xmlns="http://www.w3.org/2000/svg">
<path fill-rule="evenodd" clip-rule="evenodd" d="M7.5191 2.00059C7.26838 2.23043 6.91804 2.31707 6.5891 2.23059C6.06798 2.07157 5.77006 1.52465 5.9191 1.00059V0.740592C6.03976 0.291374 6.45423 -0.0153314 6.9191 0.000592171H13.9191C14.2391 -0.00815082 14.5439 0.136836 14.7391 0.390592C14.9317 0.636556 14.9983 0.958396 14.9191 1.26059L13.6091 6.00059H18.1491C18.5493 5.98939 18.9176 6.21793 19.0852 6.58149C19.2528 6.94504 19.1875 7.37354 18.9191 7.67059L16.2691 10.5806C16.08 10.7901 15.8113 10.9099 15.5291 10.9106C15.2813 10.9099 15.0425 10.8173 14.8591 10.6506C14.4513 10.2801 14.42 9.64963 14.7891 9.24059L15.9191 8.00059H12.3091C11.9996 7.99985 11.7079 7.85584 11.5191 7.61059C11.33 7.36292 11.2671 7.04124 11.3491 6.74059L12.6191 2.00059H7.5191ZM1.5891 0.290592L19.5891 18.2906H19.6291C19.8184 18.4784 19.9249 18.734 19.9249 19.0006C19.9249 19.2672 19.8184 19.5228 19.6291 19.7106C19.4413 19.8999 19.1857 20.0064 18.9191 20.0064C18.6525 20.0064 18.3969 19.8999 18.2091 19.7106L12.8291 14.3306L7.9791 19.6706C7.79004 19.8801 7.52128 19.9999 7.2391 20.0006C7.07157 20.0014 6.90652 19.9602 6.7591 19.8806C6.35125 19.6601 6.14842 19.1882 6.2691 18.7406L8.0791 12.0006H4.2391C3.9296 11.9998 3.63789 11.8558 3.4491 11.6106C3.2565 11.3646 3.18991 11.0428 3.2691 10.7406L4.5291 6.00059L0.209097 1.71059C-0.0955981 1.31678 -0.0641475 0.758803 0.282872 0.401725C0.629891 0.0446478 1.18674 -0.00272897 1.5891 0.290592ZM5.5391 10.0006L6.1691 7.66059L8.5091 10.0006H5.5391ZM10.2691 11.7206L9.2691 15.2806L11.4691 12.9106L10.2691 11.7206Z" fill="white"/>
</svg>
